<?xml version="1.0" encoding="UTF-8"?>
<svg version="1.1" xmlns="http://www.w3.org/2000/svg" width="512" height="512">
<path d="M0 0 C168.96 0 337.92 0 512 0 C512 168.96 512 337.92 512 512 C343.04 512 174.08 512 0 512 C0 343.04 0 174.08 0 0 Z " fill="#056C87" transform="translate(0,0)"/>
<path d="M0 0 C168.96 0 337.92 0 512 0 C512 168.96 512 337.92 512 512 C343.04 512 174.08 512 0 512 C0 343.04 0 174.08 0 0 Z M99 96 C98.49678223 96.47453613 97.99356445 96.94907227 97.47509766 97.43798828 C76.42654113 117.41685297 60.55017424 142.49574724 49 169 C48.55140625 170.02738281 48.1028125 171.05476562 47.640625 172.11328125 C25.67118774 225.96693428 27.1295904 286.66810854 47.984375 340.54296875 C48.92243266 342.73588423 49.93880268 344.86364224 51 347 C51.28101562 347.57427734 51.56203125 348.14855469 51.8515625 348.74023438 C53.88199052 352.88775503 55.9492596 357.01498067 58.04785156 361.12841797 C58.85105928 362.70723601 59.64180779 364.29238345 60.4296875 365.87890625 C73.46351506 391.13676734 94.44397559 414.84081579 117 432 C118.35351562 433.11375 118.35351562 433.11375 119.734375 434.25 C146.12121057 455.57821942 178.86843066 469.36564835 211.9375 476.125 C212.71150146 476.28379639 213.48550293 476.44259277 214.28295898 476.60620117 C227.4153514 479.17855336 240.27316055 480.41509896 253.625 480.375 C254.3791217 480.3737915 255.13324341 480.37258301 255.91021729 480.37133789 C287.13208476 480.23712421 318.6537299 474.46960818 347 461 C347.65677734 460.69094727 348.31355469 460.38189453 348.99023438 460.06347656 C353.71874876 457.81777422 358.37150024 455.44439107 363 453 C364.01175293 452.47019531 364.01175293 452.47019531 365.04394531 451.9296875 C374.80053482 446.780505 383.43196137 440.92883449 392 434 C393.49850266 432.87300632 394.99836641 431.74781858 396.5 430.625 C402.67723936 425.80788674 408.32364707 420.38781538 414 415 C415.32064453 413.76056641 415.32064453 413.76056641 416.66796875 412.49609375 C423.52334928 405.88048806 429.3080115 398.61116563 435 391 C435.43876465 390.41669922 435.8775293 389.83339844 436.32958984 389.23242188 C442.59212621 380.85741994 448.07580691 372.22975647 453 363 C453.49064941 362.09241943 453.49064941 362.09241943 453.99121094 361.16650391 C462.84842522 344.65752059 469.17172575 327.07365497 474 309 C474.28488281 307.97777344 474.56976563 306.95554687 474.86328125 305.90234375 C482.18860078 277.3899462 482.74297944 244.83480555 477 216 C476.74193571 214.56124306 476.48411986 213.12244153 476.2265625 211.68359375 C469.96731123 178.85514424 455.43988582 147.38171309 435 121 C434.25234375 119.97648437 433.5046875 118.95296875 432.734375 117.8984375 C427.18628192 110.41943328 421.00677477 103.72186868 414.4375 97.125 C413.65850342 96.34060547 412.87950684 95.55621094 412.0769043 94.74804688 C406.68111554 89.417254 401.00073712 84.63320752 395 80 C394.31929443 79.4652002 393.63858887 78.93040039 392.93725586 78.37939453 C379.77833605 68.07762044 365.85355858 60.17498105 350.84179688 52.90527344 C349.22963631 52.11287002 347.63642916 51.28214128 346.046875 50.4453125 C330.16355098 42.41685637 311.52792455 37.75307715 294 35 C293.2570166 34.86754883 292.5140332 34.73509766 291.74853516 34.59863281 C220.92313101 22.02440387 150.42152869 47.22552808 99 96 Z " fill="#000000" transform="translate(0,0)"/>
<path d="M0 0 C0.7528125 0.66515625 1.505625 1.3303125 2.28125 2.015625 C3.47234375 3.04429687 3.47234375 3.04429687 4.6875 4.09375 C7.26144222 6.35816753 9.77468371 8.67690914 12.28125 11.015625 C13.23 11.87542969 14.17875 12.73523438 15.15625 13.62109375 C38.54730616 35.39447935 53.75925649 70.08659385 55.48754883 101.80126953 C55.58420193 105.81274805 55.61586539 109.81589671 55.59375 113.828125 C55.59159485 114.5341687 55.5894397 115.2402124 55.58721924 115.96765137 C55.53666631 126.29155188 55.07525951 135.99756048 52.28125 146.015625 C52.09320801 146.75538574 51.90516602 147.49514648 51.71142578 148.25732422 C46.92615816 167.05196721 39.1348816 184.61026188 27.28125 200.015625 C26.683125 200.83417969 26.085 201.65273438 25.46875 202.49609375 C2.59576965 232.71406132 -31.19334075 251.26317773 -68.29296875 257.62890625 C-74.89935721 258.35771334 -81.57939462 258.26002529 -88.21875 258.265625 C-88.93661682 258.26629974 -89.65448364 258.26697449 -90.394104 258.26766968 C-100.82451709 258.25207841 -110.58396454 257.78866076 -120.71875 255.015625 C-122.261459 254.62397543 -123.80444474 254.23341485 -125.34765625 253.84375 C-133.10744587 251.83375987 -140.55574289 249.66139697 -147.71875 246.015625 C-148.96402668 245.42016326 -150.2102145 244.82660527 -151.45703125 244.234375 C-159.38098606 240.4283736 -166.73279559 236.40238503 -173.71875 231.015625 C-174.47800781 230.45875 -175.23726562 229.901875 -176.01953125 229.328125 C-206.76794848 205.97744482 -226.38113384 171.31011759 -232.34594727 133.30078125 C-233.05973714 127.01082931 -233.06689935 120.71377725 -233.03125 114.390625 C-233.02876251 113.68497406 -233.02627502 112.97932312 -233.02371216 112.25228882 C-232.8187353 74.60735672 -218.04133668 39.22748826 -191.71875 12.015625 C-189.13871072 9.57109198 -186.45720935 7.28021616 -183.71875 5.015625 C-182.98011719 4.38914063 -182.24148437 3.76265625 -181.48046875 3.1171875 C-131.05988859 -38.63864485 -51.44656356 -43.55809048 0 0 Z " fill="#000102" transform="translate(344.71875,141.984375)"/>
<path d="M0 0 C12.07726645 7.06170745 17.52404805 22.45926975 22 35 C22.53560547 36.44826172 22.53560547 36.44826172 23.08203125 37.92578125 C25.65603473 45.50422177 27.15561484 53.2807579 28.6875 61.125 C29.00956421 62.77012573 29.00956421 62.77012573 29.33813477 64.44848633 C31.3428331 75.09989789 32 85.09201948 32 96 C8.9 96 -14.2 96 -38 96 C-38 88.61561402 -37.80580182 82.00353616 -36.6875 74.8125 C-36.54924805 73.90177734 -36.41099609 72.99105469 -36.26855469 72.05273438 C-35.98586407 70.21749914 -35.69837365 68.38299593 -35.40576172 66.54931641 C-35.1551286 64.97464071 -34.91067125 63.39895087 -34.67626953 61.82177734 C-31.50517808 40.51974923 -24.35777072 15.96634209 -8 1 C-4.98221063 -0.50889469 -3.37677363 -0.50026276 0 0 Z " fill="#066C86" transform="translate(259,144)"/>
<path d="M0 0 C23.1 0 46.2 0 70 0 C70 9.06655802 69.40114669 17.14020446 68 26 C67.87641113 26.81936035 67.75282227 27.6387207 67.62548828 28.48291016 C64.06976678 51.70069409 58.03700322 78.49726469 40 95 C36.98221063 96.50889469 35.37677363 96.50026276 32 96 C20.07948991 89.02994968 14.84910624 74.27111403 10.63623047 61.85888672 C10.06506968 60.19011533 9.45856598 58.53353971 8.84765625 56.87890625 C6.35448801 49.94507609 4.90949998 43.00294767 3.65625 35.765625 C3.12204424 32.70030147 2.52546127 29.66686301 1.875 26.625 C0.08850427 17.69252135 0 9.18039866 0 0 Z " fill="#066C86" transform="translate(221,272)"/>
<path d="M0 0 C14.52 0 29.04 0 44 0 C44.495 7.92 44.495 7.92 45 16 C45.65812289 21.22827504 46.35858831 26.42449502 47.1875 31.625 C47.29504608 32.31089203 47.40259216 32.99678406 47.51339722 33.70346069 C49.97401118 49.24568315 53.51925132 64.51193421 59.3359375 79.171875 C60 81 60 81 60 83 C38.91463869 76.74903005 21.48617374 54.96532817 11.2265625 36.40625 C5.81405935 26.067864 0 11.80960364 0 0 Z " fill="#066B85" transform="translate(145,272)"/>
<path d="M0 0 C0.66 0.33 1.32 0.66 2 1 C1.56429687 2.06992188 1.12859375 3.13984375 0.6796875 4.2421875 C-9.46120997 29.9467844 -13.28497437 56.55958996 -15 84 C-29.52 84 -44.04 84 -59 84 C-54.28647289 55.71883731 -41.15678053 28.88402725 -17.6328125 11.43359375 C-14.48620944 9.18841083 -11.25552708 7.08404667 -8 5 C-7.16597656 4.43925781 -6.33195312 3.87851563 -5.47265625 3.30078125 C-3.6946843 2.12725546 -1.85394269 1.04940152 0 0 Z " fill="#066C86" transform="translate(204,156)"/>
<path d="M0 0 C23.64338707 8.74423292 42.61755444 31.62711114 52.93164062 54.02294922 C56.86601367 63.27938332 61 73.87304982 61 84 C46.48 84 31.96 84 17 84 C16.62875 78.8025 16.62875 78.8025 16.25 73.5 C14.21848496 48.19302754 9.14578704 23.71429737 0 0 Z " fill="#076B85" transform="translate(306,156)"/>
<path d="M0 0 C14.52 0 29.04 0 44 0 C41.65034342 14.09793948 41.65034342 14.09793948 39.375 20.3125 C38.98803955 21.38298584 38.98803955 21.38298584 38.59326172 22.47509766 C28.93447887 48.24894712 9.79387156 71.51177603 -15 84 C-15.66 83.67 -16.32 83.34 -17 83 C-16.55269531 81.88367188 -16.10539062 80.76734375 -15.64453125 79.6171875 C-9.15579261 63.00363937 -5.5410003 46.20996702 -2.75 28.625 C-2.58669189 27.60462646 -2.42338379 26.58425293 -2.25512695 25.53295898 C-0.97091703 16.96768245 -0.54618128 8.73890045 0 0 Z " fill="#066B86" transform="translate(323,272)"/>
<path d="M0 0 C2.72863567 2.72863567 3.47085394 5.91006895 4.625 9.5 C4.85445312 10.18964844 5.08390625 10.87929688 5.3203125 11.58984375 C7 16.71888951 7 16.71888951 7 19 C1.26800429 17.53025751 -3.33583399 14.55513098 -8 11 C-8 10.67 -8 10.34 -8 10 C-7.21625 9.896875 -6.4325 9.79375 -5.625 9.6875 C-2.66954819 9.22404978 -2.66954819 9.22404978 -1 6 C-0.60986284 4.0103005 -0.26797351 2.00980131 0 0 Z " fill="#096980" transform="translate(198,336)"/>
<path d="M0 0 C0.66 0.33 1.32 0.66 2 1 C0.02 6.28 -1.96 11.56 -4 17 C-4.33 17 -4.66 17 -5 17 C-5.33 15.02 -5.66 13.04 -6 11 C-6.99 11.495 -6.99 11.495 -8 12 C-8 11.34 -8 10.68 -8 10 C-9.98 10 -11.96 10 -14 10 C-11.19533807 7.00618646 -8.38815731 4.8006379 -4.875 2.6875 C-4.00617188 2.15511719 -3.13734375 1.62273437 -2.2421875 1.07421875 C-1.50226563 0.71972656 -0.76234375 0.36523438 0 0 Z " fill="#046D85" transform="translate(204,156)"/>
<path d="M0 0 C0.66 0.33 1.32 0.66 2 1 C1.54109375 1.38671875 1.0821875 1.7734375 0.609375 2.171875 C-1.27178016 3.76848568 -3.13743045 5.38176753 -5 7 C-6.1446875 7.99 -6.1446875 7.99 -7.3125 9 C-9.41376082 11.4903832 -10.14939909 13.88113 -11 17 C-12.32 16.67 -13.64 16.34 -15 16 C-15.33 17.65 -15.66 19.3 -16 21 C-17.32 21.33 -18.64 21.66 -20 22 C-18.51995129 16.66776971 -14.98119171 13.60553169 -11.125 9.875 C-10.49980469 9.25496094 -9.87460938 8.63492188 -9.23046875 7.99609375 C-6.29371479 5.10901005 -3.40311013 2.34284466 0 0 Z " fill="#0F6174" transform="translate(187,167)"/>
<path d="M0 0 C0.95904856 3.83619425 0.91892116 5.32431536 0 9 C-0.66 9 -1.32 9 -2 9 C-2 10.32 -2 11.64 -2 13 C1.63 12.01 5.26 11.02 9 10 C5.86967784 13.13032216 3.56360228 15.09383325 -0.125 17.3125 C-0.99382812 17.84488281 -1.86265625 18.37726563 -2.7578125 18.92578125 C-3.49773437 19.28027344 -4.23765625 19.63476562 -5 20 C-5.66 19.67 -6.32 19.34 -7 19 C-4.69 12.73 -2.38 6.46 0 0 Z " fill="#125F70" transform="translate(313,336)"/>
<path d="M0 0 C0.66 0.33 1.32 0.66 2 1 C0.71937515 2.7074998 -0.61767557 4.37373596 -2 6 C-2.66 6 -3.32 6 -4 6 C-4 6.66 -4 7.32 -4 8 C-5.40227212 9.12865804 -6.806336 10.25515344 -8.21875 11.37109375 C-10.30536322 13.27924663 -11.87932436 15.35492759 -13.5625 17.625 C-16.05323903 20.95152036 -18.13454814 23.24297643 -22 25 C-18.96203648 18.28056345 -13.21357525 13.08641488 -8 8 C-6.5611534 6.56384787 -5.12373959 5.12625931 -3.6875 3.6875 C-1.84375 1.84375 -1.84375 1.84375 0 0 Z " fill="#000D15" transform="translate(163,145)"/>
<path d="M0 0 C0.33 0.66 0.66 1.32 1 2 C0.36771484 2.74443359 0.36771484 2.74443359 -0.27734375 3.50390625 C-3.9597693 8.07011394 -5.75459355 11.11024529 -6 17 C-6.33 16.01 -6.66 15.02 -7 14 C-7.66 14 -8.32 14 -9 14 C-9.33 14.99 -9.66 15.98 -10 17 C-12.40673171 20.16675225 -15.26081963 20.91979234 -19 22 C-15.78897601 18.14677121 -12.53571004 14.4957942 -8.9375 11 C-5.45840354 7.58100309 -2.70313463 4.05470195 0 0 Z " fill="#0F5F73" transform="translate(371,342)"/>
<path d="M0 0 C0.33 0 0.66 0 1 0 C1.33974401 5.54915224 0.28103796 8.98171649 -2 14 C-2.144375 15.051875 -2.28875 16.10375 -2.4375 17.1875 C-3.118931 20.59465502 -4.38041271 21.80292679 -7 24 C-7.66 23.67 -8.32 23.34 -9 23 C-8.60167969 22.09378906 -8.20335937 21.18757813 -7.79296875 20.25390625 C-4.88196904 13.57896741 -2.16135178 6.96435574 0 0 Z " fill="#0F5E72" transform="translate(394,296)"/>
<path d="M0 0 C0.66 0 1.32 0 2 0 C2 0.66 2 1.32 2 2 C2.66 2 3.32 2 4 2 C4.28875 3.0725 4.5775 4.145 4.875 5.25 C5.81937632 8.81240488 5.81937632 8.81240488 7.125 11.1875 C8 13 8 13 8 17 C8.66 17 9.32 17 10 17 C10.33 19.31 10.66 21.62 11 24 C5.43782055 17.02652129 1.67967673 8.73431898 0 0 Z " fill="#115E73" transform="translate(47,336)"/>
<path d="M0 0 C4.06545509 0.95148949 5.92855615 2.82183919 8.9375 5.6875 C5.33989524 5.6875 4.7159377 4.79237704 1.9375 2.6875 C-0.20983927 1.98235154 -0.20983927 1.98235154 -2.0625 1.6875 C-2.0625 2.6775 -2.0625 3.6675 -2.0625 4.6875 C-3.78776042 5.6640625 -5.51302083 6.640625 -7.23828125 7.6171875 C-8.88232289 8.58178581 -10.47650588 9.63017059 -12.0625 10.6875 C-9.69078943 5.33952519 -5.79813245 1.30162157 0 0 Z " fill="#136275" transform="translate(256.0625,143.3125)"/>
<path d="M0 0 C2.72863567 2.72863567 3.47085394 5.91006895 4.625 9.5 C4.85445312 10.18964844 5.08390625 10.87929688 5.3203125 11.58984375 C7 16.71888951 7 16.71888951 7 19 C4.97954558 18.39816251 2.97888961 17.72693904 1 17 C0.67 16.34 0.34 15.68 0 15 C0.99 15 1.98 15 3 15 C3 13.02 3 11.04 3 9 C2.34 9 1.68 9 1 9 C0.67 6.03 0.34 3.06 0 0 Z " fill="#135F70" transform="translate(198,336)"/>
<path d="M0 0 C0.33 0 0.66 0 1 0 C1.27189586 4.08578646 0.49585743 6.60127882 -1.3125 10.25 C-3.62546752 15.09277575 -5.40487116 19.87879688 -7 25 C-8.14791164 21.63832693 -7.86212257 19.81285267 -6.6015625 16.5234375 C-6.28703125 15.688125 -5.9725 14.8528125 -5.6484375 13.9921875 C-5.14183594 12.69667969 -5.14183594 12.69667969 -4.625 11.375 C-4.295 10.50359375 -3.965 9.6321875 -3.625 8.734375 C-1.25385552 2.50771104 -1.25385552 2.50771104 0 0 Z " fill="#135E73" transform="translate(50,167)"/>
<path d="M0 0 C0.66 0.33 1.32 0.66 2 1 C-0.97 8.92 -0.97 8.92 -4 17 C-4.33 17 -4.66 17 -5 17 C-5 14.69 -5 12.38 -5 10 C-4.34 10 -3.68 10 -3 10 C-3 8.35 -3 6.7 -3 5 C-3.99 4.67 -4.98 4.34 -6 4 C-4.02 2.68 -2.04 1.36 0 0 Z " fill="#135F70" transform="translate(204,156)"/>
<path d="M0 0 C0.33 0.99 0.66 1.98 1 3 C0.0390625 4.8671875 0.0390625 4.8671875 -1.375 6.875 C-3.45634089 9.98557539 -4.34720465 12.30082634 -5 16 C-5.99 16.66 -6.98 17.32 -8 18 C-8.33 18.99 -8.66 19.98 -9 21 C-9.66 21 -10.32 21 -11 21 C-9.53171057 15.82064939 -7.18508737 11.65626588 -4.375 7.125 C-3.95476562 6.43664062 -3.53453125 5.74828125 -3.1015625 5.0390625 C-2.07307528 3.35608342 -1.037279 1.67757468 0 0 Z " fill="#115E70" transform="translate(68,133)"/>
<path d="M0 0 C3.375 -0.125 3.375 -0.125 7 0 C7.66 0.66 8.32 1.32 9 2 C9.825 1.835 10.65 1.67 11.5 1.5 C12.325 1.335 13.15 1.17 14 1 C14.66 1.66 15.32 2.32 16 3 C15.34 3 14.68 3 14 3 C14 3.66 14 4.32 14 5 C14.66 5 15.32 5 16 5 C16 5.66 16 6.32 16 7 C10.53262809 5.25192871 5.24175152 3.34205919 0 1 C0 0.67 0 0.34 0 0 Z " fill="#0F6174" transform="translate(160,458)"/>
<path d="M0 0 C0.53625 0.680625 1.0725 1.36125 1.625 2.0625 C4.35076561 5.43384168 7.16483178 8.72065543 10 12 C9.01 12.495 9.01 12.495 8 13 C5.375 12.0625 5.375 12.0625 3 11 C3.33 10.01 3.66 9.02 4 8 C3.34 7.67 2.68 7.34 2 7 C2 6.34 2 5.68 2 5 C1.34 5 0.68 5 0 5 C0 3.35 0 1.7 0 0 Z " fill="#0F6277" transform="translate(138,339)"/>
<path d="M0 0 C4.85110358 4.41009417 8.348107 9.58004353 12 15 C11.01 15 10.02 15 9 15 C8.71125 14.360625 8.4225 13.72125 8.125 13.0625 C7.17176549 10.84793921 7.17176549 10.84793921 5 10 C5 9.34 5 8.68 5 8 C4.360625 7.79375 3.72125 7.5875 3.0625 7.375 C1 6 1 6 0.25 2.875 C0.1675 1.92625 0.085 0.9775 0 0 Z " fill="#0F6273" transform="translate(339,181)"/>
<path d="M0 0 C1.5067748 2.79738782 2.48224115 5.40322432 3.1875 8.5 C3.36667969 9.2528125 3.54585938 10.005625 3.73046875 10.78125 C4.01801942 13.14833379 3.72248395 14.74544015 3 17 C-0.50270401 13.49729599 -0.05580639 9.41988475 -0.0625 4.6875 C-0.04653226 3.1249427 -0.02730408 1.56240032 0 0 Z " fill="#0D5F6F" transform="translate(474,208)"/>
<path d="M0 0 C1 2 1 2 0.4375 4.375 C-1.42040317 7.76769274 -3.75560901 8.97225563 -7 11 C-7.99 12.485 -7.99 12.485 -9 14 C-9.66 13.67 -10.32 13.34 -11 13 C-7.37 8.71 -3.74 4.42 0 0 Z " fill="#106172" transform="translate(91,104)"/>
<path d="M0 0 C1.093125 0.33 2.18625 0.66 3.3125 1 C6.84578884 2.13086649 6.84578884 2.13086649 10 2 C10 1.67 10 1.34 10 1 C11.65 1 13.3 1 15 1 C12.77613628 3.73706304 11.5774153 4.88943111 8.0625 5.5625 C4.05576432 4.82656896 2.59065185 3.0478257 0 0 Z " fill="#136176" transform="translate(248,363)"/>
<path d="M0 0 C0.66 0.33 1.32 0.66 2 1 C-0.31 6.61 -2.62 12.22 -5 18 C-5.33 18 -5.66 18 -6 18 C-6.37485997 13.62663369 -5.24092779 11.67512158 -3 8 C-2.28598768 4.80604974 -2.28598768 4.80604974 -2 2 C-1.34 2 -0.68 2 0 2 C0 1.34 0 0.68 0 0 Z " fill="#126278" transform="translate(463,336)"/>
<path d="M0 0 C1.3484585 3.06467841 0.91740262 4.2434449 -0.1875 7.5 C-1.84704181 10.70463246 -3.29492345 12.66803746 -6 15 C-3.10933941 4.44191344 -3.10933941 4.44191344 0 0 Z " fill="#106374" transform="translate(157,203)"/>
<path d="M0 0 C-1.79033807 1.31431172 -3.58231203 2.6263953 -5.375 3.9375 C-6.37273437 4.66839844 -7.37046875 5.39929688 -8.3984375 6.15234375 C-11 8 -11 8 -13 9 C-12.41990645 5.80948545 -11.87716761 3.64224583 -9.19140625 1.67578125 C-3.65625 -1.21875 -3.65625 -1.21875 0 0 Z " fill="#106175" transform="translate(173,139)"/>
<path d="M0 0 C4.54109672 4.26587874 8.24735246 9.03612328 12 14 C11.67 14.66 11.34 15.32 11 16 C10.1028125 14.7934375 10.1028125 14.7934375 9.1875 13.5625 C7.19052724 10.77672016 7.19052724 10.77672016 4 10 C2.9375 7.75 2.9375 7.75 2 5 C1.62875 4.071875 1.2575 3.14375 0.875 2.1875 C0.58625 1.465625 0.2975 0.74375 0 0 Z " fill="#135F70" transform="translate(424,108)"/>
<path d="M0 0 C0 0.99 0 1.98 0 3 C-0.99 3.66 -1.98 4.32 -3 5 C-2.34 5.66 -1.68 6.32 -1 7 C-5.95 8.485 -5.95 8.485 -11 10 C-7.50640535 6.40365256 -3.88901869 3.16548033 0 0 Z " fill="#116478" transform="translate(351,364)"/>
<path d="M0 0 C3.48150271 1.39114439 4.64789512 2.64281602 6.125 6.0625 C7.34829428 9.18259157 7.34829428 9.18259157 10 11 C9.67 11.99 9.34 12.98 9 14 C5.48453819 9.51750177 2.35287886 5.22861968 0 0 Z " fill="#126274" transform="translate(158,310)"/>
<path d="M0 0 C0.598125 0.33 1.19625 0.66 1.8125 1 C4.05386471 2.20787988 4.05386471 2.20787988 7 2 C7 4.97 7 7.94 7 11 C4.04250209 7.53258866 1.92151848 4.13126473 0 0 Z " fill="#0E6275" transform="translate(62,368)"/>
<path d="M0 0 C0.99 0 1.98 0 3 0 C1.63629701 2.99220268 0.05091917 5.29026529 -2.125 7.75 C-2.93324219 8.67039062 -2.93324219 8.67039062 -3.7578125 9.609375 C-4.16773438 10.06828125 -4.57765625 10.5271875 -5 11 C-5.33 9.68 -5.66 8.36 -6 7 C-5.01 7 -4.02 7 -3 7 C-2.690625 6.030625 -2.38125 5.06125 -2.0625 4.0625 C-1 1 -1 1 0 0 Z " fill="#0D6476" transform="translate(341,324)"/>
<path d="M0 0 C0.33 0 0.66 0 1 0 C1.31985731 6.71700347 0.4793824 11.75726932 -2 18 C-2.33 18 -2.66 18 -3 18 C-2.57045059 11.74892565 -1.98598493 5.95795479 0 0 Z " fill="#115E71" transform="translate(228,189)"/>
<path d="M0 0 C0 4.61730205 -1.02636647 7.91182134 -4.125 11.375 C-4.74375 11.91125 -5.3625 12.4475 -6 13 C-6.66 12.67 -7.32 12.34 -8 12 C-6.85573734 10.186508 -5.70954608 8.37423275 -4.5625 6.5625 C-3.60537109 5.04849609 -3.60537109 5.04849609 -2.62890625 3.50390625 C-1 1 -1 1 0 0 Z " fill="#116172" transform="translate(166,189)"/>
<path d="M0 0 C0.66 0.99 1.32 1.98 2 3 C1.67 3.99 1.34 4.98 1 6 C0.34 6 -0.32 6 -1 6 C-1.2165625 7.175625 -1.2165625 7.175625 -1.4375 8.375 C-2 11 -2 11 -3 13 C-3.66 13 -4.32 13 -5 13 C-4.54554036 11.58208592 -4.08625056 10.16571954 -3.625 8.75 C-3.24214844 7.56664062 -3.24214844 7.56664062 -2.8515625 6.359375 C-2.04826333 4.13372042 -1.10288338 2.09068328 0 0 Z " fill="#0E6175" transform="translate(56,154)"/>
<path d="M0 0 C0.33 0.66 0.66 1.32 1 2 C-2.07881696 5.87051275 -5.00073014 9.02911382 -9 12 C-9.66 11.67 -10.32 11.34 -11 11 C-7.37 7.37 -3.74 3.74 0 0 Z " fill="#00111A" transform="translate(418,410)"/>
<path d="M0 0 C0.33 0 0.66 0 1 0 C1.26618595 6.95041086 0.6120509 13.23514355 -1 20 C-1.33 20 -1.66 20 -2 20 C-2.23668569 12.96517526 -1.7879537 6.8165735 0 0 Z " fill="#115F72" transform="translate(289,284)"/>
<path d="M0 0 C1.33332095 2.6666419 0.67102033 4.16680303 0 7 C-0.99 7 -1.98 7 -3 7 C-3.33 8.32 -3.66 9.64 -4 11 C-4.66 11 -5.32 11 -6 11 C-6 11.66 -6 12.32 -6 13 C-6.66 12.67 -7.32 12.34 -8 12 C-5.36 8.04 -2.72 4.08 0 0 Z " fill="#115F73" transform="translate(380,329)"/>
<path d="M0 0 C1.32 0.66 2.64 1.32 4 2 C-0.75 6.875 -0.75 6.875 -3 8 C-2.67 6.35 -2.34 4.7 -2 3 C-1.34 3 -0.68 3 0 3 C0 2.01 0 1.02 0 0 Z " fill="#096275" transform="translate(327,337)"/>
<path d="M0 0 C1.5 1.375 1.5 1.375 3 3 C3 5 3 5 0.625 7.5625 C-2 10 -2 10 -4 11 C-3.52269162 9.5410574 -3.04308958 8.08286504 -2.5625 6.625 C-2.29566406 5.81289062 -2.02882812 5.00078125 -1.75390625 4.1640625 C-1 2 -1 2 0 0 Z " fill="#106278" transform="translate(236,167)"/>
<path d="M0 0 C2.475 0.495 2.475 0.495 5 1 C5 1.99 5 2.98 5 4 C6.65 3.34 8.3 2.68 10 2 C9.34 3.98 8.68 5.96 8 8 C6.85073734 7.04578192 5.70569459 6.08647955 4.5625 5.125 C3.92441406 4.59132812 3.28632813 4.05765625 2.62890625 3.5078125 C1 2 1 2 0 0 Z " fill="#0E5E70" transform="translate(356,152)"/>
<path d="M0 0 C0.33 0.66 0.66 1.32 1 2 C-1.82522609 6.67248931 -4.67760044 9.65996398 -9 13 C-7.50923566 9.7173068 -5.61379679 7.06922559 -3.375 4.25 C-2.74335938 3.45078125 -2.11171875 2.6515625 -1.4609375 1.828125 C-0.97882813 1.22484375 -0.49671875 0.6215625 0 0 Z " fill="#00171F" transform="translate(433,392)"/>
<path d="M0 0 C1.93359375 0.375 1.93359375 0.375 4 1 C4.69937532 2.31647119 5.36729133 3.65022151 6 5 C6.99 5.33 7.98 5.66 9 6 C9.33 6.99 9.66 7.98 10 9 C6.78956118 7.61811547 4.95063635 6.07578097 2.75 3.375 C2.22921875 2.74335938 1.7084375 2.11171875 1.171875 1.4609375 C0.78515625 0.97882813 0.3984375 0.49671875 0 0 Z " fill="#000F19" transform="translate(156,359)"/>
<path d="M0 0 C-1.47559669 4.42679007 -3.90057368 4.91432696 -8 7 C-8.66 7 -9.32 7 -10 7 C-10 6.34 -10 5.68 -10 5 C-9.360625 4.896875 -8.72125 4.79375 -8.0625 4.6875 C-7.381875 4.460625 -6.70125 4.23375 -6 4 C-5.67 3.01 -5.34 2.02 -5 1 C-3 0 -3 0 0 0 Z " fill="#000C19" transform="translate(204,155)"/>
<path d="M0 0 C0.99 0.33 1.98 0.66 3 1 C3 1.66 3 2.32 3 3 C2.34 3 1.68 3 1 3 C1 3.66 1 4.32 1 5 C-1.31 4.67 -3.62 4.34 -6 4 C-4.03617993 2.49440461 -2.21736634 1.10868317 0 0 Z " fill="#0E6279" transform="translate(156,55)"/>
<path d="M0 0 C2.31 0.66 4.62 1.32 7 2 C7.33 3.65 7.66 5.3 8 7 C6.66382648 6.02471263 5.3311249 5.04466681 4 4.0625 C3.2575 3.51722656 2.515 2.97195313 1.75 2.41015625 C1.1725 1.94480469 0.595 1.47945313 0 1 C0 0.67 0 0.34 0 0 Z " fill="#0B5E6F" transform="translate(181,339)"/>
<path d="M0 0 C1.98 0 3.96 0 6 0 C4.35 1.98 2.7 3.96 1 6 C0.34 5.01 -0.32 4.02 -1 3 C-0.67 2.01 -0.34 1.02 0 0 Z " fill="#106379" transform="translate(146,156)"/>
<path d="M0 0 C3.05882701 1.52941351 3.68951234 3.94219546 5 7 C4.67 7.66 4.34 8.32 4 9 C2.35 7.68 0.7 6.36 -1 5 C-0.67 3.35 -0.34 1.7 0 0 Z " fill="#106279" transform="translate(451,147)"/>
<path d="M0 0 C0.33 0.66 0.66 1.32 1 2 C-4.625 7 -4.625 7 -8 7 C-6.5361389 2.60841671 -4.02168662 2.12052567 0 0 Z " fill="#000E1B" transform="translate(316,350)"/>
<path d="M0 0 C1 2 1 2 0.3125 4.5625 C-1 7 -1 7 -3.125 7.8125 C-3.74375 7.874375 -4.3625 7.93625 -5 8 C-3.8141763 4.62496331 -2.72426311 2.35277269 0 0 Z " fill="#0B5C6C" transform="translate(172,181)"/>
<path d="M0 0 C4.60428934 1.31551124 8.18320388 3.09196486 12 6 C12 6.66 12 7.32 12 8 C9.14940657 6.61964507 6.44119096 5.10703513 3.75 3.4375 C3.04359375 3.00308594 2.3371875 2.56867188 1.609375 2.12109375 C1.07828125 1.75113281 0.5471875 1.38117188 0 1 C0 0.67 0 0.34 0 0 Z " fill="#125C6F" transform="translate(329,131)"/>
<path d="M0 0 C0 3.97054597 -1.3139381 5.16471244 -4 8 C-6.140625 8.6484375 -6.140625 8.6484375 -8 9 C-7.04270084 7.87411986 -6.08412105 6.7493285 -5.125 5.625 C-4.59132813 4.99851562 -4.05765625 4.37203125 -3.5078125 3.7265625 C-2.38567993 2.44163349 -1.20628025 1.20628025 0 0 Z " fill="#136176" transform="translate(106,89)"/>
<path d="M0 0 C0.66 0.66 1.32 1.32 2 2 C-1.465 4.97 -1.465 4.97 -5 8 C-5 5 -5 5 -2.5 2.3125 C-1.675 1.549375 -0.85 0.78625 0 0 Z " fill="#000D16" transform="translate(353,359)"/>
<path d="M0 0 C0.6875 1.625 0.6875 1.625 1 4 C-0.4375 7.25 -0.4375 7.25 -2 10 C-2.66 10 -3.32 10 -4 10 C-2.8905928 6.51329166 -1.73662334 3.22515763 0 0 Z " fill="#00111C" transform="translate(358,301)"/>
<path d="M0 0 C0.99 0.66 1.98 1.32 3 2 C1.35 3.65 -0.3 5.3 -2 7 C-2 5.02 -2 3.04 -2 1 C-1.34 0.67 -0.68 0.34 0 0 Z " fill="#0F687D" transform="translate(143,161)"/>
<path d="M0 0 C3.45925163 1.2491742 6.14693203 2.67527795 9 5 C7.824375 4.9690625 7.824375 4.9690625 6.625 4.9375 C4.01885039 4.81315937 4.01885039 4.81315937 2 6 C1.34 4.02 0.68 2.04 0 0 Z " fill="#175A67" transform="translate(306,156)"/>
<path d="M0 0 C4.455 2.97 4.455 2.97 9 6 C8.01 6.33 7.02 6.66 6 7 C2.8125 5.25 2.8125 5.25 0 3 C0 2.01 0 1.02 0 0 Z " fill="#000D19" transform="translate(336,136)"/>
<path d="M0 0 C2.875 0.1875 2.875 0.1875 6 1 C7.375 3.5625 7.375 3.5625 8 6 C1.125 2.25 1.125 2.25 0 0 Z " fill="#116274" transform="translate(112,427)"/>
<path d="M0 0 C0.99 0.33 1.98 0.66 3 1 C0.03 4.96 0.03 4.96 -3 9 C-3.33 8.01 -3.66 7.02 -4 6 C-2.0625 2.8125 -2.0625 2.8125 0 0 Z " fill="#000B18" transform="translate(373,336)"/>
<path d="M0 0 C0.99 0.33 1.98 0.66 3 1 C3 1.66 3 2.32 3 3 C0.03 3.66 -2.94 4.32 -6 5 C-2.25 1.125 -2.25 1.125 0 0 Z " fill="#116174" transform="translate(196,161)"/>
<path d="M0 0 C2.4375 0.6875 2.4375 0.6875 5 2 C5.8125 4.625 5.8125 4.625 6 7 C1.125 3.375 1.125 3.375 0 0 Z " fill="#136373" transform="translate(81,395)"/>
<path d="M0 0 C3.00765886 2.84936103 5.27845212 5.23511958 7 9 C5.82460004 8.07347299 4.65989423 7.13336613 3.5 6.1875 C2.52546875 5.40439453 2.52546875 5.40439453 1.53125 4.60546875 C0 3 0 3 0 0 Z " fill="#00191E" transform="translate(73,386)"/>
<path d="M0 0 C2.475 0.495 2.475 0.495 5 1 C4.67 2.65 4.34 4.3 4 6 C2.62437146 4.71034824 1.29233607 3.37310707 0 2 C0 1.34 0 0.68 0 0 Z " fill="#0B6678" transform="translate(73,384)"/>
<path d="M0 0 C-2.64 1.65 -5.28 3.3 -8 5 C-8 4.01 -8 3.02 -8 2 C-4.90310319 -1.09689681 -4.48560889 -1.12140222 0 0 Z " fill="#000F1D" transform="translate(344,371)"/>
<path d="M0 0 C3.37462715 0.54723683 5.08235 1.0549 8 3 C7.67 3.99 7.34 4.98 7 6 C5.83054208 5.19152271 4.66449539 4.37810888 3.5 3.5625 C2.8503125 3.11003906 2.200625 2.65757812 1.53125 2.19140625 C1.0259375 1.79824219 0.520625 1.40507812 0 1 C0 0.67 0 0.34 0 0 Z " fill="#00101E" transform="translate(168,370)"/>
<path d="M0 0 C1.65 1.65 3.3 3.3 5 5 C3.35 5 1.7 5 0 5 C-0.33 4.34 -0.66 3.68 -1 3 C-0.67 2.01 -0.34 1.02 0 0 Z " fill="#11637A" transform="translate(157,361)"/>
<path d="M0 0 C0.99 0.33 1.98 0.66 3 1 C2.67 1.99 2.34 2.98 2 4 C0.35 4.33 -1.3 4.66 -3 5 C-3.33 3.68 -3.66 2.36 -4 1 C-1.525 1.99 -1.525 1.99 1 3 C0.67 2.01 0.34 1.02 0 0 Z " fill="#03121D" transform="translate(204,352)"/>
<path d="M0 0 C3.16115776 1.36983503 3.9927092 1.9890638 6 5 C5.67 5.99 5.34 6.98 5 8 C4.16382818 6.8562364 3.33113541 5.70992861 2.5 4.5625 C2.0359375 3.92441406 1.571875 3.28632813 1.09375 2.62890625 C0 1 0 1 0 0 Z " fill="#000C17" transform="translate(138,338)"/>
</svg>
